<?xml version="1.0" encoding="utf-8"?>
<!-- Generator: Adobe Illustrator 22.0.0, SVG Export Plug-In . SVG Version: 6.00 Build 0)  -->
<svg version="1.1" id="Calque_1" xmlns="http://www.w3.org/2000/svg" xmlns:xlink="http://www.w3.org/1999/xlink" x="0px" y="0px"
	 viewBox="0 0 64 64" style="enable-background:new 0 0 64 64;" xml:space="preserve">
<style type="text/css">
	.st0{fill:none;stroke:#FFFFFF;stroke-miterlimit:10;}
</style>
<g>
	<path class="st0" d="M47.2,13.7H32.6c-0.6,0-1,0-1,0c0,0-0.5,0-1,0H16c-0.6,0-1,0.4-0.9,0.9c0,0.5,0.1,1.3,0.2,1.9l1.5,16.3
		c0,0.5,0.5,1,1.1,1h12.8c0.6,0,1,0,1,0c0,0,0.5,0,1,0h6.1c0.6,0,1,0.4,0.9,1l-0.6,6.6c0,0.5-0.5,1.1-1.1,1.3l-5.5,1.5
		c-0.5,0.1-1,0.3-1,0.3c0,0-0.4-0.1-1-0.3l-5.4-1.5c-0.5-0.1-1-0.7-1.1-1.3l-0.3-3.3c0-0.5-0.5-1-1.1-1h-1.6c-0.6,0-1.5,0-2,0h-1.1
		c-0.6,0-1,0.4-0.9,1l0.7,8.4c0,0.5,0.5,1.1,1.1,1.3L30.6,51c0.5,0.1,1,0.3,1,0.3c0,0,0.4-0.1,1-0.3l11.6-3.2c0.5-0.1,1-0.5,1-0.8
		c0-0.3,0.1-1,0.1-1.6l1.4-15.5c0-0.5,0.1-1.4,0.2-1.9c0-0.5-0.3-0.9-0.8-0.9c-0.5,0-1.3,0-1.9,0H32.6c-0.6,0-1,0-1,0c0,0-0.5,0-1,0
		h-6.7c-0.6,0-1-0.4-1.1-1l-0.4-4.8c0-0.5,0.4-1,0.9-1h7.4c0.6,0,1,0,1,0c0,0,0.5,0,1,0h14c0.6,0,1,0,1,0c0,0,0-0.3,0.1-0.7
		c0-0.4,0.1-1.2,0.2-1.7l0.1-1.4c0-0.5,0.1-1.4,0.2-1.9C48.2,14.1,47.7,13.7,47.2,13.7z"/>
	<path class="st0" d="M57.1,2.7h-51c-0.6,0-1,0.4-0.9,1l4.6,52.1c0,0.5,0.5,1.1,1.1,1.3l19.7,5.5c0.5,0.1,1.4,0.1,1.9,0L52.3,57
		c0.5-0.1,1-0.7,1.1-1.3L58,3.7C58,3.1,57.6,2.7,57.1,2.7z M47.9,16.5l-0.1,1.4c0,0.5-0.1,1.3-0.2,1.7c0,0.4-0.1,0.7-0.1,0.7
		c0,0-0.5,0-1,0h-14c-0.6,0-1,0-1,0c0,0-0.5,0-1,0h-7.4c-0.6,0-1,0.4-0.9,1l0.4,4.8c0,0.5,0.5,1,1.1,1h6.7c0.6,0,1,0,1,0
		c0,0,0.5,0,1,0h11.6c0.6,0,1.4,0,1.9,0c0.5,0,0.9,0.4,0.8,0.9c0,0.5-0.1,1.3-0.2,1.9l-1.4,15.5c0,0.5-0.1,1.2-0.1,1.6
		c0,0.3-0.5,0.7-1,0.8L32.6,51c-0.5,0.1-1,0.3-1,0.3c0,0-0.4-0.1-1-0.3L19,47.7c-0.5-0.1-1-0.7-1.1-1.3l-0.7-8.4c0-0.5,0.4-1,0.9-1
		h1.1c0.6,0,1.5,0,2,0h1.6c0.6,0,1,0.4,1.1,1l0.3,3.3c0,0.5,0.5,1.1,1.1,1.3l5.4,1.5c0.5,0.1,1,0.3,1,0.3c0,0,0.4-0.1,1-0.3l5.5-1.5
		c0.5-0.1,1-0.7,1.1-1.3l0.6-6.6c0-0.5-0.4-1-0.9-1h-6.1c-0.6,0-1,0-1,0c0,0-0.5,0-1,0H17.8c-0.6,0-1-0.4-1.1-1l-1.5-16.3
		c0-0.5-0.1-1.4-0.2-1.9c0-0.5,0.4-0.9,0.9-0.9h14.6c0.6,0,1,0,1,0c0,0,0.5,0,1,0h14.6c0.6,0,1,0.4,0.9,0.9
		C48.1,15.1,48,15.9,47.9,16.5z"/>
</g>
</svg>
