<?xml version="1.0" encoding="utf-8"?>
<!-- Generator: Adobe Illustrator 22.0.0, SVG Export Plug-In . SVG Version: 6.00 Build 0)  -->
<svg version="1.1" id="Layer_1" xmlns="http://www.w3.org/2000/svg" xmlns:xlink="http://www.w3.org/1999/xlink" x="0px" y="0px"
	 viewBox="0 0 299.2 299.2" style="enable-background:new 0 0 299.2 299.2;" xml:space="preserve">
<style type="text/css">
	.st0{fill:none;stroke:#000000;stroke-miterlimit:10;}
</style>
<g>
	<path class="st0" d="M227.4,55.2h-72.8c-2.8,0-5,0-5.1,0c0,0-2.3,0-5.1,0H71.6c-2.8,0-4.8,2-4.6,4.4c0.2,2.4,0.6,6.7,0.8,9.4
		l7.3,81.3c0.2,2.7,2.7,5,5.4,5h64c2.8,0,5,0,5.1,0c0,0,2.3,0,5.1,0h30.7c2.8,0,4.8,2.2,4.6,5l-3,33c-0.2,2.7-2.6,5.6-5.3,6.3
		l-27.3,7.4c-2.7,0.7-4.8,1.3-4.8,1.3c0,0-2.2-0.6-4.8-1.3l-27.2-7.4c-2.7-0.7-5-3.5-5.3-6.3l-1.5-16.5c-0.2-2.7-2.7-5-5.4-5h-7.9
		c-2.8,0-7.2,0-10,0H82c-2.8,0-4.8,2.2-4.6,5l3.7,42c0.2,2.7,2.6,5.6,5.3,6.3l58.2,16.1c2.7,0.7,4.9,1.3,4.9,1.3
		c0,0,2.2-0.6,4.9-1.4l58.1-16.1c2.7-0.7,4.9-2.6,5.1-4.1c0.1-1.5,0.4-5,0.7-7.8l6.9-77.2c0.2-2.7,0.6-7,0.8-9.4
		c0.2-2.4-1.6-4.4-4.1-4.4c-2.5,0-6.7,0-9.5,0h-57.9c-2.8,0-5,0-5.1,0c0,0-2.3,0-5.1,0h-33.7c-2.8,0-5.2-2.2-5.4-5l-2.1-24
		c-0.2-2.7,1.8-5,4.6-5h36.7c2.8,0,5,0,5.1,0c0,0,2.3,0,5.1,0h69.8c2.8,0,5,0,5.1,0c0,0,0.2-1.7,0.4-3.7c0.2-2,0.5-6,0.8-8.7
		l0.6-6.8c0.2-2.7,0.6-7,0.8-9.4C232.3,57.2,230.2,55.2,227.4,55.2z"/>
	<path class="st0" d="M276.9,0H22.3c-2.8,0-4.8,2.2-4.6,5L41,265c0.2,2.7,2.6,5.6,5.3,6.3l98.4,27.3c2.6,0.7,7,0.7,9.6,0l98.7-27.4
		c2.7-0.7,5-3.6,5.3-6.3L281.4,5C281.7,2.2,279.6,0,276.9,0z M231.2,69.1l-0.6,6.8c-0.2,2.7-0.6,6.7-0.8,8.7c-0.2,2-0.4,3.7-0.4,3.7
		c0,0-2.3,0-5.1,0h-69.8c-2.8,0-5,0-5.1,0c0,0-2.3,0-5.1,0h-36.7c-2.8,0-4.8,2.2-4.6,5l2.1,24c0.2,2.7,2.7,5,5.4,5h33.7
		c2.8,0,5,0,5.1,0c0,0,2.3,0,5.1,0h57.9c2.8,0,7,0,9.5,0c2.4,0,4.3,2,4.1,4.4c-0.2,2.4-0.6,6.7-0.8,9.4l-6.9,77.2
		c-0.2,2.7-0.6,6.2-0.7,7.8c-0.1,1.5-2.4,3.4-5.1,4.1l-58.1,16.1c-2.6,0.7-4.9,1.3-4.9,1.4c0,0-2.2-0.6-4.9-1.3l-58.2-16.1
		c-2.6-0.7-5-3.6-5.3-6.3l-3.7-42c-0.2-2.7,1.8-5,4.6-5h5.3c2.8,0,7.2,0,10,0h7.9c2.8,0,5.2,2.2,5.4,5l1.5,16.5
		c0.2,2.7,2.6,5.6,5.3,6.3l27.2,7.4c2.7,0.7,4.8,1.3,4.8,1.3c0,0,2.2-0.6,4.8-1.3l27.3-7.4c2.7-0.7,5-3.5,5.3-6.3l3-33
		c0.2-2.7-1.8-5-4.6-5h-30.7c-2.8,0-5,0-5.1,0c0,0-2.3,0-5.1,0h-64c-2.8,0-5.2-2.2-5.4-5l-7.3-81.3c-0.2-2.7-0.6-7-0.8-9.4
		c-0.2-2.4,1.9-4.4,4.6-4.4h72.9c2.8,0,5,0,5.1,0c0,0,2.3,0,5.1,0h72.8c2.7,0,4.8,2,4.6,4.4C231.8,62.1,231.5,66.3,231.2,69.1z"/>
</g>
</svg>
