<?xml version="1.0" encoding="utf-8"?>
<!-- Generator: Adobe Illustrator 22.0.0, SVG Export Plug-In . SVG Version: 6.00 Build 0)  -->
<svg version="1.1" id="Calque_1" xmlns="http://www.w3.org/2000/svg" xmlns:xlink="http://www.w3.org/1999/xlink" x="0px" y="0px"
	 viewBox="0 0 16 16" style="enable-background:new 0 0 16 16;" xml:space="preserve">
<style type="text/css">
	.st0{opacity:0.3;fill:#FFFFFF;enable-background:new    ;}
	.st1{fill:#FFFFFF;}
	.st2{display:none;fill:#FFFFFF;}
</style>
<title>Twitter White Icon</title>
<desc>Created with Sketch.</desc>
<g id="Assets">
	<g id="Elements" transform="translate(-2045.000000, -68.000000)">
		<g id="Social-Icons" transform="translate(2029.000000, 52.000000)">
			<g id="Twitter">
				<path id="Base" class="st0" d="M24,48C10.7,48,0,37.3,0,24S10.7,0,24,0s24,10.7,24,24S37.3,48,24,48z M24,46
					c12.2,0,22-9.8,22-22S36.2,2,24,2S2,11.8,2,24S11.8,46,24,46z"/>
				<path id="half-circle-icon" class="st1" d="M24,0c13.3,0,24,10.7,24,24S37.3,48,24,48v-2c12.2,0,22-9.8,22-22S36.2,2,24,2V0z"/>
				<path id="Twitter-Icon" class="st2" d="M30.4,21.7c0,4.3-3.3,9.3-9.3,9.3c-1.8,0-3.5-0.5-5-1.5c0.3,0,0.5,0,0.8,0
					c1.5,0,2.9-0.5,4.1-1.4c-1.4,0-2.7-1-3.1-2.3c0.2,0,0.4,0.1,0.6,0.1c0.3,0,0.6,0,0.9-0.1c-1.6-0.3-2.7-1.7-2.6-3.2
					c0.5,0.2,1,0.4,1.5,0.4c-1.4-1-1.9-2.9-1-4.4c1.6,2,4.1,3.3,6.8,3.4c-0.1-0.2-0.1-0.5-0.1-0.7c0-1.8,1.4-3.3,3.3-3.3
					c0.9,0,1.8,0.4,2.4,1c0.7-0.1,1.4-0.4,2.1-0.8c-0.2,0.8-0.8,1.4-1.4,1.8c0.7-0.1,1.3-0.2,1.9-0.5c-0.4,0.7-1,1.2-1.6,1.7
					C30.4,21.4,30.4,21.5,30.4,21.7z"/>
			</g>
		</g>
	</g>
</g>
<path class="st1" d="M3.8,5.5H1.7C1.4,5.5,1.2,5.7,1.2,6v8.8c0,0.3,0.2,0.5,0.5,0.5h2.1c0.3,0,0.5-0.2,0.5-0.5V6
	C4.3,5.7,4,5.5,3.8,5.5z"/>
<path class="st1" d="M11.7,5.4C10,5.4,9.3,6,8.8,6.7V6c0-0.3-0.2-0.5-0.5-0.5H6.1C5.9,5.5,5.7,5.7,5.7,6v8.9c0,0.3,0.2,0.5,0.5,0.5
	h2.2c0.3,0,0.5-0.2,0.5-0.5v-4.8C8.8,9.5,9.1,8,10.5,8c1.8,0,1.6,2.1,1.6,2.7v4.1c0,0.3,0.2,0.5,0.5,0.5h2.3c0.3,0,0.5-0.2,0.5-0.5
	v-4.3C15.3,8.7,15.3,5.4,11.7,5.4z"/>
<circle class="st1" cx="2.7" cy="2.7" r="2"/>
</svg>
