<?xml version="1.0" encoding="utf-8"?>
<!-- Generator: Adobe Illustrator 22.0.0, SVG Export Plug-In . SVG Version: 6.00 Build 0)  -->
<svg version="1.1" id="Calque_1" xmlns="http://www.w3.org/2000/svg" xmlns:xlink="http://www.w3.org/1999/xlink" x="0px" y="0px"
	 viewBox="0 0 146 40" style="enable-background:new 0 0 146 40;" xml:space="preserve">
<style type="text/css">
	.st0{fill:#FFFFFF;}
</style>
<g>
	<path class="st0" d="M13.4,10.8c0,0.1-0.1,0.3-0.3,0.6c-0.2,0.3-0.5,0.8-0.9,1.4s-0.9,1.4-1.5,2.4c-0.6,1-1.2,2.1-1.8,3.2
		c-0.7,1.4-1.2,2.4-1.5,3.2c-0.3,0.8-0.5,1.5-0.5,2c0,0.4,0.2,0.8,0.7,1.2c0.6-0.4,1.1-1,1.7-1.6c0.6-0.6,1.1-1.3,1.6-2.1
		c0.5-0.8,1.2-1.7,1.9-2.9c0.7-1.2,1.3-2.2,1.9-3.2c0-0.1-0.1-0.2-0.1-0.2c0-0.1,0-0.1,0-0.2c0-0.4,0.1-0.8,0.3-1.2
		c0.2-0.4,0.4-0.7,0.6-1.1s0.6-0.8,1.1-1.5c0.1-0.2,0.3-0.3,0.5-0.3c0.3,0,0.5,0.2,0.5,0.6s-0.2,1.1-0.5,1.9
		c-0.3,0.9-0.8,1.9-1.5,3.1c-0.7,1.2-1.5,2.5-2.4,4c-1,1.5-2.1,3-3.3,4.6c-1.2,1.6-2.1,2.4-2.7,2.4c-0.3,0-0.6-0.2-1-0.5
		s-0.7-0.8-1-1.4c-0.3-0.6-0.4-1.2-0.4-1.9c0-0.4,0.1-0.9,0.2-1.5c0.2-0.6,0.4-1.4,0.8-2.2c0.4-0.9,0.8-1.7,1.2-2.6
		c0.5-0.9,0.9-1.6,1.2-2.2c0.4-0.6,0.8-1.2,1.2-1.9c0.4-0.7,0.7-1.1,0.7-1.2c0-0.1-0.1-0.2-0.3-0.2c-0.5,0-1.2,0.3-2.1,0.8
		c-0.9,0.5-2,1.3-3.4,2.4c-0.5,0.4-0.9,0.7-1,0.8c-0.1,0.1-0.2,0.2-0.2,0.3c0,0.1,0.1,0.2,0.3,0.2c0.1,0,0.3,0,0.7-0.1
		c0.4-0.1,0.7-0.1,1-0.1c0.4,0,0.6,0.1,0.6,0.2c0,0.1-0.1,0.2-0.2,0.3c-0.2,0.1-0.4,0.1-0.7,0.2s-0.7,0.2-1.2,0.3
		c-0.5,0.1-1.1,0.3-1.7,0.6c-0.6,0.3-0.9,0.4-1,0.4c-0.2,0-0.3-0.1-0.3-0.2c0-0.1-0.1-0.3-0.1-0.6c0-1.3,0.2-2.2,0.6-2.9
		s1.2-1.4,2.2-2.2c1.2-0.9,2.4-1.6,3.5-2.1c1.1-0.6,2.1-1,2.9-1.2s1.4-0.4,1.8-0.4c0.4,0,0.7,0.2,1.1,0.7
		C13.2,9.7,13.4,10.2,13.4,10.8z"/>
	<path class="st0" d="M21.7,21.7v1c-0.9,1.1-1.7,2-2.4,2.5c-0.8,0.6-1.4,0.9-1.9,0.9c-0.7,0-1.3-0.4-1.6-1.2s-0.5-1.6-0.5-2.5
		c0-0.3,0-0.7,0.1-1c0.1-0.3,0.2-0.6,0.3-0.8c0.1-0.2,0.3-0.5,0.5-1c1.3-2,2.4-3,3.5-3c0.5,0,0.8,0.2,0.8,0.6c0,0.3-0.2,0.7-0.5,1.3
		c-0.4,0.6-0.7,1-0.9,1.3c-0.8,0.8-1.3,1.3-1.5,1.6c-0.2,0.3-0.4,0.6-0.4,1c0,0.3,0.1,0.6,0.4,0.8c0.2,0.2,0.6,0.3,0.9,0.3
		c0.4,0,0.9-0.2,1.4-0.5C20.2,22.9,20.9,22.4,21.7,21.7z M20.8,15.7c-0.2,0-0.4-0.1-0.6-0.3c-0.2-0.2-0.3-0.4-0.3-0.6
		c0-0.4,0.2-0.8,0.6-1.3c0.4-0.5,0.8-0.7,1.2-0.7c0.3,0,0.5,0.1,0.7,0.2c0.2,0.2,0.3,0.4,0.3,0.7c0,0.4-0.2,0.8-0.5,1.3
		C21.6,15.5,21.2,15.7,20.8,15.7z"/>
	<path class="st0" d="M30.6,19.3c-1.6,1.7-2.4,3-2.4,3.7c0,0.4,0.2,0.6,0.5,0.6c0.3,0,0.6-0.1,1-0.4c0.4-0.3,1.1-0.8,1.9-1.5v0.9
		c-1.3,1.2-2.2,2.2-2.9,2.7c-0.7,0.6-1.2,0.8-1.7,0.8c-0.7,0-1.1-0.5-1.1-1.4c0-0.3,0-0.6,0.1-0.8c0.1-0.3,0.2-0.6,0.4-0.9
		c0.2-0.3,0.4-0.7,0.7-1.3c0.3-0.6,0.7-1.2,1.1-1.9c-0.5,0.3-1.1,0.8-1.9,1.5c-0.5,0.5-0.9,0.9-1.3,1.4c-0.3,0.4-0.7,0.9-1.1,1.4
		c-0.4,0.5-0.7,0.9-0.9,1.1c-0.2,0.2-0.4,0.3-0.6,0.3c-0.3,0-0.5-0.3-0.8-0.9c-0.2-0.6-0.4-1.3-0.4-2.1c0-0.5,0.1-0.9,0.2-1.2
		c0.1-0.3,0.3-0.7,0.7-1.2c0.6-0.9,1.1-1.6,1.6-2.1c0.4-0.4,0.9-0.7,1.3-0.7c0.3,0,0.5,0,0.7,0.1c0.2,0.1,0.3,0.2,0.3,0.5
		c0,0.1,0,0.2-0.1,0.3s-0.1,0.2-0.2,0.3c-0.1,0.1-0.2,0.2-0.4,0.5c-1.4,1.6-2.1,2.6-2.1,3c0,0.3,0.1,0.4,0.3,0.4
		c0.1,0,0.3-0.2,0.6-0.5s0.7-0.8,1.2-1.4c0.5-0.6,1.1-1.1,1.7-1.7c0.7-0.6,1.4-1.2,2.3-1.8c0.5-0.3,0.9-0.5,1.2-0.5
		c0.1,0,0.3,0.2,0.4,0.6c0.1,0.4,0.2,0.8,0.2,1.2C31.2,18.6,31,18.9,30.6,19.3z"/>
	<path class="st0" d="M39.7,21.7v0.9c-1,0.9-1.7,1.7-2.3,2.2s-1.2,0.9-1.7,1.2c-0.5,0.3-1,0.4-1.5,0.4c-0.5,0-0.9-0.2-1.4-0.6
		c-0.4-0.4-0.7-0.9-1-1.5c-0.2-0.6-0.3-1.3-0.3-2c0-0.6,0.1-1.1,0.4-1.6c0.3-0.5,0.8-1.1,1.6-1.8c0.9-0.9,1.8-1.6,2.5-2.1
		c0.8-0.5,1.4-0.7,1.8-0.7c0.3,0,0.6,0.1,0.8,0.3s0.3,0.5,0.3,0.8c0,0.3-0.1,0.7-0.4,1.2c-0.3,0.5-0.6,1-1,1.4
		c-0.4,0.4-0.7,0.6-0.9,0.6c-0.2,0-0.3-0.1-0.3-0.4c0-0.1,0-0.1,0-0.2c0-0.1,0-0.1,0-0.2c0-0.1,0-0.2-0.1-0.2c-0.1,0-0.2,0-0.3,0.1
		c-0.9,0.6-1.5,1.1-1.8,1.3c-0.3,0.3-0.6,0.5-0.8,0.8S33,22.2,33,22.5c0,0.5,0.2,1,0.5,1.3c0.3,0.3,0.8,0.5,1.3,0.5
		c0.6,0,1.2-0.2,2-0.6C37.7,23.2,38.6,22.5,39.7,21.7z"/>
	<path class="st0" d="M41.8,22.2v0.3c0,0.5,0.1,0.9,0.4,1.2c0.3,0.3,0.6,0.4,1,0.4c0.4,0,0.9-0.1,1.4-0.3s0.9-0.5,1.4-0.8
		s1-0.8,1.7-1.4v0.8c-1,1.2-2,2.1-2.8,2.8s-1.8,1-2.7,1c-0.8,0-1.4-0.3-1.9-0.9c-0.5-0.6-0.7-1.5-0.7-2.5c0-0.9,0.2-1.8,0.7-2.6
		c0.4-0.8,1.2-1.6,2.1-2.4c0.7-0.6,1.4-1,2-1.3c0.7-0.3,1.3-0.4,1.8-0.4c0.4,0,0.8,0.1,1,0.3c0.2,0.2,0.4,0.5,0.4,0.9
		c0,0.6-0.2,1.1-0.6,1.7c-0.4,0.6-1.1,1.1-1.9,1.7C44.1,21.1,43,21.7,41.8,22.2z M41.9,21.3c0.8-0.3,1.5-0.7,2.1-1.2
		c0.6-0.5,1-0.9,1.3-1.3s0.4-0.7,0.4-0.9c0-0.2-0.1-0.3-0.3-0.3c-0.2,0-0.4,0.1-0.8,0.3c-0.4,0.2-0.7,0.5-1.1,0.8
		c-0.4,0.3-0.7,0.7-1,1.2C42.2,20.3,42,20.8,41.9,21.3z"/>
	<path class="st0" d="M56.6,19.3c-1.6,1.7-2.4,3-2.4,3.7c0,0.4,0.2,0.6,0.5,0.6c0.3,0,0.6-0.1,1-0.4c0.4-0.3,1.1-0.8,1.9-1.5v0.9
		c-1.3,1.2-2.2,2.2-2.9,2.7c-0.7,0.6-1.2,0.8-1.7,0.8c-0.7,0-1.1-0.5-1.1-1.4c0-0.3,0-0.6,0.1-0.8c0.1-0.3,0.2-0.6,0.4-0.9
		c0.2-0.3,0.4-0.7,0.7-1.3c0.3-0.6,0.7-1.2,1.1-1.9c-0.5,0.3-1.1,0.8-1.9,1.5c-0.5,0.5-0.9,0.9-1.3,1.4c-0.3,0.4-0.7,0.9-1.1,1.4
		c-0.4,0.5-0.7,0.9-0.9,1.1c-0.2,0.2-0.4,0.3-0.6,0.3c-0.3,0-0.5-0.3-0.8-0.9c-0.2-0.6-0.4-1.3-0.4-2.1c0-0.5,0.1-0.9,0.2-1.2
		c0.1-0.3,0.3-0.7,0.7-1.2c0.6-0.9,1.1-1.6,1.6-2.1c0.4-0.4,0.9-0.7,1.3-0.7c0.3,0,0.5,0,0.7,0.1c0.2,0.1,0.3,0.2,0.3,0.5
		c0,0.1,0,0.2-0.1,0.3s-0.1,0.2-0.2,0.3c-0.1,0.1-0.2,0.2-0.4,0.5c-1.4,1.6-2.1,2.6-2.1,3c0,0.3,0.1,0.4,0.3,0.4
		c0.1,0,0.3-0.2,0.6-0.5s0.7-0.8,1.2-1.4c0.5-0.6,1.1-1.1,1.7-1.7c0.7-0.6,1.4-1.2,2.3-1.8c0.5-0.3,0.9-0.5,1.2-0.5
		c0.1,0,0.3,0.2,0.4,0.6c0.1,0.4,0.2,0.8,0.2,1.2C57.2,18.6,57,18.9,56.6,19.3z"/>
	<path class="st0" d="M62.3,14.7h0.6c0.5-0.8,0.9-1.4,1.3-1.8c0.4-0.4,0.8-0.5,1.3-0.5c0.5,0,0.7,0.1,0.7,0.3c0,0.1-0.2,0.4-0.6,0.9
		c-0.4,0.5-0.7,0.9-0.9,1.2c0.3,0,0.6,0.1,0.8,0.1c0.2,0,0.4,0,0.6,0.1c-0.5,0.9-1.1,1.9-1.9,2.9c-0.2,0-0.5,0-0.6,0
		c-0.2,0-0.3,0-0.5,0c-0.2,0-0.4,0-0.6,0c-0.5,0.8-0.9,1.5-1.2,2.1c-0.3,0.6-0.6,1.2-0.7,1.7c-0.2,0.5-0.3,1-0.3,1.4
		c0,0.6,0.2,0.9,0.7,0.9c0.3,0,0.8-0.2,1.3-0.5s1.3-0.9,2.2-1.7v0.9c-2.4,2.6-4.2,3.9-5.3,3.9c-0.4,0-0.7-0.2-1-0.5
		s-0.4-0.7-0.4-1.2c0-0.3,0.1-0.7,0.2-1.2c0.1-0.5,0.4-1.1,0.7-2.1c-0.1,0.1-0.2,0.2-0.4,0.3c-0.1,0.1-0.2,0.2-0.3,0.3
		c-0.1,0.1-0.2,0.2-0.3,0.3c-0.1,0.1-0.2,0.2-0.3,0.3v-0.9c0.9-0.8,2.1-2.2,3.4-4.1c-0.1,0-0.3,0-0.4,0c-0.1,0-0.3,0-0.4,0
		c-0.5,0-0.9,0-1.2,0.1c-0.1,0-0.2,0.1-0.3,0.1s-0.2,0-0.2,0s-0.1,0-0.1-0.1c0-0.3,0.2-0.7,0.5-1.3c0.3-0.5,0.6-0.9,0.8-1.1
		c0.3-0.2,0.6-0.4,1-0.5C61.1,14.8,61.6,14.7,62.3,14.7z"/>
	<path class="st0" d="M80.9,19.2h2c1.2-1.6,2.1-2.9,2.7-4.1c0.6-1.2,0.9-1.9,0.9-2.3c0-0.5-0.4-0.8-1.3-0.8c-0.5,0-1.4,0.2-2.7,0.3
		c-1.3,0.2-2.5,0.4-3.8,0.6c-1.1,0.2-2,0.4-2.6,0.6S75,14,74.7,14.2c-0.3,0.1-0.4,0.2-0.5,0.3c0.7,0,1.2-0.1,1.7-0.1
		c0.7,0,1.1,0.1,1.1,0.2c0,0.1-0.2,0.2-0.8,0.3s-1,0.2-1.4,0.4c-0.4,0.1-0.9,0.3-1.3,0.4c-0.4,0.2-0.7,0.3-0.8,0.3
		c-0.2,0-0.4-0.1-0.5-0.2S72,15.4,72,15.2c0-0.2,0.1-0.5,0.4-1.2s0.6-1.3,1-1.9c0.4-0.6,1-1.1,1.7-1.4c0.2-0.1,1-0.3,2.3-0.6
		c1.3-0.3,2.8-0.6,4.4-0.8c1.6-0.2,3.1-0.4,4.5-0.4c0.8,0,1.5,0.1,2,0.3c0.5,0.2,0.7,0.7,0.7,1.5c0,0.2-0.1,0.6-0.3,1.1
		c-0.2,0.5-0.5,1.1-0.8,1.9s-0.9,1.6-1.4,2.6c-0.6,0.9-1.2,1.9-1.9,3h2.1l-1.8,2.6c-0.2,0-0.5,0-0.9,0c-0.4,0-0.8,0-1.2,0
		c-1.1,1.4-2.3,2.8-3.6,4s-2.4,2.3-3.5,3c-1,0.8-1.8,1.1-2.2,1.1c-0.2,0-0.3-0.1-0.4-0.2s-0.2-0.3-0.2-0.4c0-0.2,0.2-0.5,0.6-1.2
		c0.4-0.6,0.9-1.2,1.7-1.8s1.5-0.8,2.4-0.9c0.4-0.4,0.7-0.7,0.9-1s0.6-0.7,1.1-1.3c0.5-0.6,0.9-1,1.1-1.3l-4,0.2
		c-0.4,0-0.7,0-0.9-0.1c-0.2-0.1-0.2-0.2-0.2-0.4c0.2-0.5,0.3-0.8,0.4-0.9c0.1-0.3,0.3-0.4,0.3-0.5c0.1-0.1,0.3-0.1,0.7-0.2l2.5-0.6
		C80.2,19.3,80.6,19.2,80.9,19.2z"/>
	<path class="st0" d="M87.1,22.7v-0.9c0.5-0.6,0.8-1.1,1.1-1.5c-0.3-0.1-0.5-0.2-0.6-0.4c-0.1-0.1-0.2-0.4-0.2-0.6
		c0-0.3,0.1-0.7,0.4-1.2c0.3-0.5,0.6-1,1-1.4c0.4-0.4,0.8-0.7,1.1-0.8c0.1-0.1,0.2-0.1,0.4-0.1c0.2,0,0.3,0.1,0.3,0.3
		c0,0.2-0.1,0.5-0.4,0.9c1.8-0.3,3-0.4,3.5-0.4c0.2,0,0.3,0,0.4,0.1c0.2,0.1,0.3,0.3,0.4,0.6c0.1,0.3,0.1,0.6,0.1,0.9
		c0,0.2-0.1,0.4-0.2,0.6s-0.4,0.5-0.9,1c-0.5,0.5-0.9,1.1-1.2,1.7c-0.3,0.6-0.5,1-0.5,1.4c0,0.4,0.3,0.6,0.8,0.6
		c0.5,0,1.5-0.6,2.8-1.7v0.9c-0.7,0.8-1.4,1.4-1.8,1.8c-0.5,0.4-0.9,0.8-1.3,1.1c-0.4,0.3-0.8,0.4-1.1,0.4c-0.4,0-0.7-0.2-0.9-0.5
		s-0.4-0.8-0.4-1.5c0-0.4,0.1-0.8,0.3-1.3c0.2-0.5,0.5-1,0.9-1.6c0.4-0.6,0.8-1.1,1.3-1.7c-0.2,0.1-0.5,0.1-0.8,0.2s-0.6,0.1-1,0.2
		c-0.3,0.1-0.6,0.1-0.8,0.1C89,20.8,88.2,21.8,87.1,22.7z"/>
	<path class="st0" d="M96.8,19.3c1.4-1.2,2.7-2.1,4-2.7s2.3-0.9,3-0.9c0.2,0,0.4,0.1,0.5,0.2c0.2,0.2,0.3,0.3,0.4,0.5
		s0.1,0.4,0.1,0.5c0,0.2-0.1,0.3-0.2,0.4c-0.1,0.1-0.3,0.2-0.7,0.3c0.1,0.1,0.1,0.3,0.2,0.5s0.2,0.4,0.2,0.5
		c0.1,0.1,0.1,0.3,0.1,0.4c0,0.2-0.2,0.6-0.6,1.2c-0.4,0.6-0.7,1-0.9,1.3c-0.2,0.3-0.3,0.6-0.3,1c0,0.7,0.3,1,0.9,1
		c0.6,0,1.6-0.6,2.9-1.8v0.8c-2.3,2.5-3.9,3.8-4.8,3.8c-0.3,0-0.6-0.1-0.7-0.3s-0.2-0.6-0.2-1c0-0.7,0.3-1.7,0.8-3.1
		c-1.3,1.4-2.3,2.5-2.9,3.1c-0.6,0.6-1.2,0.9-1.6,0.9c-0.2,0-0.4-0.2-0.7-0.5C96,25,95.7,24.6,95.5,24s-0.3-1.1-0.3-1.7
		c0-0.4,0-0.8,0.1-1.1c0.1-0.3,0.2-0.6,0.5-0.9C96,20.2,96.3,19.8,96.8,19.3z M103.3,17.8c-2.3,1.1-4,2-5,2.7
		c-1,0.7-1.5,1.5-1.5,2.3c0,0.3,0,0.5,0.1,0.7c0.1,0.2,0.2,0.3,0.4,0.3c0.1,0,0.3-0.1,0.5-0.2c0.9-0.6,1.8-1.3,2.6-2.2
		C101.2,20.5,102.2,19.3,103.3,17.8z"/>
	<path class="st0" d="M108.2,21.7l-0.2,1.1c0,0.1-0.1,0.3-0.1,0.5c0,0.5,0.2,0.7,0.6,0.7c0.4,0,1.3-0.8,2.8-2.2c0-0.6,0.2-1.2,0.6-2
		s0.9-1.4,1.4-2s0.9-0.9,1.1-0.9c0.4,0,0.6,0.3,0.6,0.8c0,0.3-0.1,0.7-0.2,1.1c-0.2,0.5-0.4,0.9-0.7,1.5c-0.3,0.5-0.7,1.1-1.1,1.6
		c0.2,0.4,0.5,0.6,0.7,0.6c0.2,0,0.4-0.1,0.6-0.2c0.2-0.1,0.5-0.4,0.9-0.6v0.9c-0.5,0.4-0.9,0.7-1.2,0.8s-0.7,0.2-1.1,0.2
		c-0.2,0-0.5-0.1-1-0.4c-0.9,1-1.7,1.7-2.2,2.2s-1,0.7-1.4,0.7c-0.6,0-1.1-0.4-1.6-1.1s-0.6-1.5-0.6-2.4c0-1.2,0.7-2.6,2-4.3
		c0.4-0.5,0.7-0.8,1-1s0.5-0.3,0.8-0.3c0.3,0,0.5,0,0.8,0.1c0.2,0.1,0.4,0.2,0.4,0.3c0,0.4-0.3,1.1-0.9,2
		C109.6,20.3,108.9,21.1,108.2,21.7z"/>
	<path class="st0" d="M117.4,22.2v0.3c0,0.5,0.1,0.9,0.4,1.2c0.3,0.3,0.6,0.4,1,0.4c0.4,0,0.9-0.1,1.4-0.3s0.9-0.5,1.4-0.8
		s1-0.8,1.7-1.4v0.8c-1,1.2-2,2.1-2.8,2.8c-0.9,0.6-1.8,1-2.7,1c-0.8,0-1.4-0.3-1.9-0.9c-0.5-0.6-0.7-1.5-0.7-2.5
		c0-0.9,0.2-1.8,0.7-2.6c0.4-0.8,1.2-1.6,2.1-2.4c0.7-0.6,1.4-1,2-1.3c0.7-0.3,1.3-0.4,1.8-0.4c0.4,0,0.8,0.1,1,0.3
		c0.2,0.2,0.4,0.5,0.4,0.9c0,0.6-0.2,1.1-0.6,1.7c-0.4,0.6-1.1,1.1-1.9,1.7C119.7,21.1,118.7,21.7,117.4,22.2z M117.5,21.3
		c0.8-0.3,1.5-0.7,2.1-1.2s1-0.9,1.3-1.3s0.4-0.7,0.4-0.9c0-0.2-0.1-0.3-0.3-0.3c-0.2,0-0.4,0.1-0.8,0.3c-0.4,0.2-0.7,0.5-1.1,0.8
		c-0.4,0.3-0.7,0.7-1,1.2C117.8,20.3,117.6,20.8,117.5,21.3z"/>
	<path class="st0" d="M128,14.7h0.6c0.5-0.8,0.9-1.4,1.3-1.8c0.4-0.4,0.8-0.5,1.3-0.5c0.5,0,0.7,0.1,0.7,0.3c0,0.1-0.2,0.4-0.6,0.9
		c-0.4,0.5-0.7,0.9-0.9,1.2c0.3,0,0.6,0.1,0.8,0.1s0.4,0,0.6,0.1c-0.5,0.9-1.1,1.9-1.9,2.9c-0.2,0-0.5,0-0.6,0c-0.2,0-0.3,0-0.5,0
		c-0.2,0-0.4,0-0.6,0c-0.5,0.8-0.9,1.5-1.2,2.1c-0.3,0.6-0.6,1.2-0.8,1.7c-0.2,0.5-0.3,1-0.3,1.4c0,0.6,0.2,0.9,0.7,0.9
		c0.3,0,0.8-0.2,1.3-0.5s1.3-0.9,2.2-1.7v0.9c-2.4,2.6-4.2,3.9-5.3,3.9c-0.4,0-0.7-0.2-1-0.5c-0.2-0.3-0.4-0.7-0.4-1.2
		c0-0.3,0.1-0.7,0.2-1.2c0.1-0.5,0.4-1.1,0.7-2.1c-0.1,0.1-0.2,0.2-0.4,0.3c-0.1,0.1-0.2,0.2-0.3,0.3c-0.1,0.1-0.2,0.2-0.3,0.3
		c-0.1,0.1-0.2,0.2-0.3,0.3v-0.9c0.9-0.8,2.1-2.2,3.4-4.1c-0.1,0-0.3,0-0.4,0s-0.3,0-0.4,0c-0.5,0-0.9,0-1.2,0.1
		c-0.1,0-0.2,0.1-0.3,0.1s-0.2,0-0.2,0c0,0-0.1,0-0.1-0.1c0-0.3,0.2-0.7,0.5-1.3c0.3-0.5,0.6-0.9,0.8-1.1c0.3-0.2,0.6-0.4,1-0.5
		C126.8,14.8,127.3,14.7,128,14.7z"/>
	<path class="st0" d="M134.8,14.7h0.6c0.5-0.8,0.9-1.4,1.3-1.8c0.4-0.4,0.8-0.5,1.3-0.5c0.5,0,0.7,0.1,0.7,0.3
		c0,0.1-0.2,0.4-0.6,0.9c-0.4,0.5-0.7,0.9-0.9,1.2c0.3,0,0.6,0.1,0.8,0.1s0.4,0,0.6,0.1c-0.5,0.9-1.1,1.9-1.9,2.9
		c-0.2,0-0.5,0-0.6,0c-0.2,0-0.3,0-0.5,0c-0.2,0-0.4,0-0.6,0c-0.5,0.8-0.9,1.5-1.2,2.1c-0.3,0.6-0.6,1.2-0.8,1.7
		c-0.2,0.5-0.3,1-0.3,1.4c0,0.6,0.2,0.9,0.7,0.9c0.3,0,0.8-0.2,1.3-0.5s1.3-0.9,2.2-1.7v0.9c-2.4,2.6-4.2,3.9-5.3,3.9
		c-0.4,0-0.7-0.2-1-0.5c-0.2-0.3-0.4-0.7-0.4-1.2c0-0.3,0.1-0.7,0.2-1.2c0.1-0.5,0.4-1.1,0.7-2.1c-0.1,0.1-0.2,0.2-0.4,0.3
		c-0.1,0.1-0.2,0.2-0.3,0.3c-0.1,0.1-0.2,0.2-0.3,0.3c-0.1,0.1-0.2,0.2-0.3,0.3v-0.9c0.9-0.8,2.1-2.2,3.4-4.1c-0.1,0-0.3,0-0.4,0
		s-0.3,0-0.4,0c-0.5,0-0.9,0-1.2,0.1c-0.1,0-0.2,0.1-0.3,0.1s-0.2,0-0.2,0c0,0-0.1,0-0.1-0.1c0-0.3,0.2-0.7,0.5-1.3
		c0.3-0.5,0.6-0.9,0.8-1.1c0.3-0.2,0.6-0.4,1-0.5C133.6,14.8,134.1,14.7,134.8,14.7z"/>
	<path class="st0" d="M139.1,22.2v0.3c0,0.5,0.1,0.9,0.4,1.2c0.3,0.3,0.6,0.4,1,0.4c0.4,0,0.9-0.1,1.4-0.3s0.9-0.5,1.4-0.8
		s1-0.8,1.7-1.4v0.8c-1,1.2-2,2.1-2.8,2.8c-0.9,0.6-1.8,1-2.7,1c-0.8,0-1.4-0.3-1.9-0.9c-0.5-0.6-0.7-1.5-0.7-2.5
		c0-0.9,0.2-1.8,0.7-2.6c0.4-0.8,1.2-1.6,2.1-2.4c0.7-0.6,1.4-1,2-1.3c0.7-0.3,1.3-0.4,1.8-0.4c0.4,0,0.8,0.1,1,0.3
		c0.2,0.2,0.4,0.5,0.4,0.9c0,0.6-0.2,1.1-0.6,1.7c-0.4,0.6-1.1,1.1-1.9,1.7C141.5,21.1,140.4,21.7,139.1,22.2z M139.3,21.3
		c0.8-0.3,1.5-0.7,2.1-1.2s1-0.9,1.3-1.3s0.4-0.7,0.4-0.9c0-0.2-0.1-0.3-0.3-0.3c-0.2,0-0.4,0.1-0.8,0.3c-0.4,0.2-0.7,0.5-1.1,0.8
		c-0.4,0.3-0.7,0.7-1,1.2C139.5,20.3,139.4,20.8,139.3,21.3z"/>
</g>
</svg>
