<?xml version="1.0" encoding="utf-8"?>
<!-- Generator: Adobe Illustrator 22.0.0, SVG Export Plug-In . SVG Version: 6.00 Build 0)  -->
<svg version="1.1" id="Calque_1" xmlns="http://www.w3.org/2000/svg" xmlns:xlink="http://www.w3.org/1999/xlink" x="0px" y="0px"
	 viewBox="0 0 121 17" style="enable-background:new 0 0 121 17;" xml:space="preserve">
<style type="text/css">
	.st0{fill:#CCCCCC;}
</style>
<title>Sep</title>
<desc>Created with Sketch.</desc>
<g id="Assets">
	<g id="Elements" transform="translate(-319.000000, -434.000000)">
		<path id="Sep" class="st0" d="M371.8,446c-0.4-0.9-0.7-1.9-0.7-3h-52v-1h52c0.1-1.1,0.3-2.1,0.7-3H349v-1h23.3
			c1.5-2.4,4.2-4,7.2-4s5.7,1.6,7.2,4H410v1h-22.8c0.4,0.9,0.7,1.9,0.7,3h52v1h-52c-0.1,1.1-0.3,2.1-0.7,3H410v1h-23.3
			c-1.5,2.4-4.2,4-7.2,4s-5.7-1.6-7.2-4H349v-1H371.8z M379.5,450c4.1,0,7.5-3.4,7.5-7.5s-3.4-7.5-7.5-7.5s-7.5,3.4-7.5,7.5
			S375.4,450,379.5,450z M379.5,446c-1.9,0-3.5-1.6-3.5-3.5s1.6-3.5,3.5-3.5s3.5,1.6,3.5,3.5S381.4,446,379.5,446z"/>
	</g>
</g>
</svg>
