<?xml version="1.0" encoding="utf-8"?>
<!-- Generator: Adobe Illustrator 22.0.0, SVG Export Plug-In . SVG Version: 6.00 Build 0)  -->
<svg version="1.1" id="Calque_1" xmlns="http://www.w3.org/2000/svg" xmlns:xlink="http://www.w3.org/1999/xlink" x="0px" y="0px"
	 viewBox="0 0 121 17" style="enable-background:new 0 0 121 17;" xml:space="preserve">
<style type="text/css">
	.st0{fill:#FFFFFF;}
</style>
<title>sep-white</title>
<desc>Created with Sketch.</desc>
<g id="Assets">
	<g id="Elements" transform="translate(-660.000000, -484.000000)">
		<path id="sep-white" class="st0" d="M712.8,496H690v1h23.3c1.5,2.4,4.2,4,7.2,4s5.7-1.6,7.2-4H751v-1h-22.8c0.4-0.9,0.7-1.9,0.7-3
			h52v-1h-52c-0.1-1.1-0.3-2.1-0.7-3H751v-1h-23.3c-1.5-2.4-4.2-4-7.2-4s-5.7,1.6-7.2,4H690v1h22.8c-0.4,0.9-0.7,1.9-0.7,3h-52v1h52
			C712.1,494.1,712.3,495.1,712.8,496z M720.5,500c4.1,0,7.5-3.4,7.5-7.5s-3.4-7.5-7.5-7.5s-7.5,3.4-7.5,7.5S716.4,500,720.5,500z
			 M720.5,496c1.9,0,3.5-1.6,3.5-3.5s-1.6-3.5-3.5-3.5s-3.5,1.6-3.5,3.5S718.6,496,720.5,496z"/>
	</g>
</g>
</svg>
